<?xml version="1.0" encoding="UTF-8"?>
<svg id="Layer_1" data-name="Layer 1" xmlns="http://www.w3.org/2000/svg" viewBox="0 0 1000 1000">
  <defs>
    <style>
      .cls-1 {
        fill: #fff;
        fill-rule: evenodd;
      }
    </style>
  </defs>
  <path class="cls-1" d="m660.41,641.61c-2.22-33.67,22.22-57.01,47.6-54.6,14.46,1.4,24.69,11.68,25.67,27.6,1.05,16.18-1.15,31.37-12.42,43.4-2.64,2.81-4.12,5.73-1.7,10.23,1.02,1.92.28,7.07-1.15,8.1-11.03,7.72-21.21,18.35-36.32,13.37-11.76-3.87-18.83-12.8-19.78-26.46-.49-7.23-1.26-14.41-1.9-21.63Zm26.49,19.04c1.86-1.37,3.86-2,4.35-3.3,2.89-7.46,7.64-8.61,14.29-6.8,5.83,1.57,6.99-3.09,7.33-6.97-3.45,1.24-6.91,2.48-9.91,3.55,2.99-7.71,6.62-14.23,7.76-21.26.6-3.63-2.28-9.77-5.23-11.8-2.4-1.64-8,.03-10.97,2.22-10.49,7.6-14.28,29.6-7.62,44.36Z"/>
  <path class="cls-1" d="m778.66,663.6c10.01-3.17,20.06-18.71,15.08-25.62-6.66-9.17-10.55-23.03-24.34-23.93-6.83-.44-13.59-1.48-20.38-2.25-.47-4.11-.96-8.37-1.48-12.77,1.62-.92,3.47-1.98,6.72-3.86-4.27-1.28-7.17-2.13-10.6-3.18,16.92-9.41,46.68-4.21,58.42,10.4,2.4,3.03,2.24,8.38,3.87,12.36,2.48,6.14,6.58,11.7,8.17,18.06,7.91,32.35-14.92,61.83-44.89,58.06-5.28-.65-10.41-3.09-16.13-4.86,5.88-18.43,4.09-36.46-.11-54.56-.51-2.16.97-6.52,2.57-7.28,4.38-2.13,9.22-3.82,13.95-3.97,6.97-.2,9.83,4.15,9.32,12.25-.67,10.16-.16,20.42-.16,31.14Z"/>
  <path class="cls-1" d="m714.93,125.66c6.28-.67,11.93-1.27,19.45-2.05v100.7h-22.82c.96-14.15,2.01-28.93,3.13-45.17-8.3,1.7-14.92,3.02-22,4.45-.81,10.41-1.61,20.57-2.35,30.72-.84,10.93-1.17,11.21-10.79,9.66-2.65-.42-5.36-.39-8.96-.61,0-8.37.38-16.51-.16-24.59-.31-5.21-2.11-10.28-3.02-15.46-.35-1.87,0-3.94.17-5.89,1.32-15.34,2.71-30.67,3.87-46.03.14-1.95-1.08-3.99-2.43-8.57,5.36.6,10.2-.26,13.43,1.87,3.61,2.44,5.75,7.55,7.36,9.85.77,9.7,1.4,18.04,2.12,26.93,6.47-.93,11.89-1.54,17.24-2.5,7.01-1.24,11.08-7.56,9.73-15.15-1.05-5.85-2.49-11.58-3.96-18.17Z"/>
  <path class="cls-1" d="m231.48,358.11c16.85-21.58,39.32-29.67,58.57-22.81-11.95,34.81-4.41,68.71,5.03,101.93,11.01,38.74,31.79,71.61,56.37,101.41,7.53,9.16,11.97,19.03,14.54,30.7,7.03,32.14,6.64,63.09-7.01,93.67-15.31,34.13-29.13,69.08-43.32,103.84-1.82,4.47-2.91,9.83-2.79,14.74.76,28.14,2.06,56.26,3.09,84.4.15,3.3.04,6.6.04,11.31-5.14,0-9.73-.03-14.36,0-42.26.35-84.61.53-126.92,1.27-6.03.12-8.97-3.04-11.95-7.59-22.49-34.6-40.1-72.24-56.16-110.73-16.78-40.07-32.39-80.73-48.66-121.08-2.17-5.37-2.43-9.87.31-15.29,3.57-7.11,6.79-14.64,8.86-22.41,1.76-6.74,2.56-14.16,2.11-21.16-.49-7.56-.08-13.94,4.38-20.29,6.86-9.85,12.78-20.38,19.15-30.68,4.61-7.52,9.53-14.04,7.75-25.15-.97-6.16,4.37-14.43,8.39-20.43,8-11.87,17.39-22.58,25.47-34.41,1.94-2.85,2.31-8.49,1.29-12.15-5.08-18.37-10.19-36.96-5.7-56.05,2.37-9.79,8.37-18.5,12.81-27.67.23-.52.74-.89,1.13-1.29,32.83-32.72,33.85-28.31,66.08-14.39,4.36,1.85,8.65,4.08,13.15,5.23,6.49,1.65,10.35,4.95,8.37,15.07Zm8.73,105.69c-1.33-18.8-2.74-38.71-4.21-58.61-1.35-18.17-12.16-29.09-25.01-37.95-5.51-3.8-11.47-3.01-15.65,2.66-5.57,7.62-8.37,16.74-4.94,26.24,9.44,26.43,19.28,52.66,29.5,78.74,1.15,3,5.44,6.04,8.51,6.35,10.49,1.04,12.42-2.03,11.8-17.43Z"/>
  <path class="cls-1" d="m845.72,243.08c4.71-1.67,9.33-4.22,14.15-4.88,25.41-3.4,45.94,6.95,61.41,28.81,27.79,39.19,27.35,82.36,12.01,126.34-13.44,38.4-41.1,61.04-74.85,75.58-29.75,12.85-60.91,17.66-92.65,18.79-4.07.13-8.11.41-13.54.71,2.32,3.99,3.99,6.89,6.33,10.89-29.11,5.07-55.89-2.73-82.42-11.94-27.17-9.41-51.96-24.04-75.83-41.12-24.31-17.41-40.18-42.19-53.47-72.79-47.78,99.82-125.32,125.78-218.02,116.64,3.98-1.82,7.94-3.67,12.75-5.87-1.83-.63-2.63-1.19-3.36-1.08-15.51,2.09-21.63-8.79-27.33-22.17-12.03-28.44-19-58.01-19.68-89.25-.3-12.8-1.15-24.82,12.2-33.8,14.32-9.63,25.74-24.4,38.78-36.45,27.84-25.66,57.93-47.17,93.72-56.66,42.49-11.27,88.38,9.99,105.78,64.89.77,2.37,2.88,4.24,4.36,6.32,1.93-2.06,4.25-3.8,5.63-6.21,1.4-2.49,1.77-5.69,2.73-8.53,14.62-41.65,45.82-61.12,85.83-53.43,46.75,9.02,86.4,33.81,122.43,66.94,14.49,13.36,29.16,26.75,44.74,38.54,23.17,17.54,49.65,23.67,77.49,22.67,19.83-.71,34.06-15.62,36.22-38.45,2.78-29.42-5.51-55.07-24.59-75.94-13.96-15.28-31.22-19.24-50.32-15.38-.18-1.04-.35-2.1-.52-3.16Z"/>
  <path class="cls-1" d="m444.41,636.64c-5.99,11.43-.43,21.63-.31,32.2-2.97,2.43-6.16,5.04-9.94,8.11-4.46-1.82-8.83-8.29-15.08-3.05-.2.16-4.31-3.63-4.83-6.05-.54-2.61.93-5.79,1.63-8.69,2.72-11.5.73-21.67-5.95-31.77-3.1,12.37-6.71,25.18-9.39,38.23-1.07,5.16.64,11.03-.44,16.14-.74,3.27-3.89,7.11-6.73,8.21-2.56,1-6.21-1.36-9.03-4.08-3.93,1.74-7.89,3.48-13.48,5.95.64-4.67.56-7.1,1.36-9.12,6.49-16.07,9.77-32.89,12.05-50.38,1.83-14,7.31-27.51,11.72-41.01.64-1.93,4.67-3.9,6.86-3.57,5.89.92,11.69,2.83,17.42,4.85,1.3.46,3.19,3.7,2.85,4.55-3.38,7.41,3.74,9.16,6.53,13.93,1.78-7.15,3.52-14.27,5.25-21.29,16-2.65,24.59,4.02,28.41,20.24,3.99,16.85,9.08,33.38,13.42,50.17,2.5,9.6,4.44,19.37,6.84,30.2-7.97,0-15.77.29-23.5-.27-1.38-.11-3.52-3.71-3.69-5.88-.68-8.74.45-17.89-1.46-26.24-1.66-7.19-6.52-13.5-10.54-21.38Z"/>
  <path class="cls-1" d="m338.33,159.94c-3.52,14.81-6.88,28.14-9.74,41.61-.68,3.33.47,7.15.49,10.7.12,9.05-3,13.29-10.15,12.73-2.52-.22-4.92-2.8-7.2-4.18-3.41,1.41-7.29,3.03-13.49,5.61,1.83-6.79,2.9-10.44,3.76-14.14,3.06-13.03,5.8-26.17,9.13-39.12,4.14-16.13,8.59-32.22,13.41-48.16.49-1.61,4.45-3.11,6.51-2.73,5.87,1.04,11.7,2.85,17.42,4.88,1.35.49,3.36,3.72,3.03,4.35-3.77,7.2,2.8,9.33,5.67,16.46,2.34-9.54,4.07-16.52,5.78-23.54,15.44-2.99,25.09,4.23,28.82,20.29,3.86,16.58,8.79,32.84,13.02,49.31,2.48,9.92,4.48,20.04,6.94,31.03-7.95,0-15.52.37-23.02-.31-1.67-.13-4.22-3.91-4.39-6.24-.74-8.51-.6-17.08-.77-25.67-.04-.6.17-1.32-.09-1.77-3.49-6.31-7.04-12.55-12.55-19.07-.17,5.9-1.4,12.11-.22,17.66,2.14,9.82,1.73,17.45-8.75,21.52-4.19-1.86-8.67-7.69-14.88-2.65-.33.27-3.57-2.76-4.57-4.75-.6-1.22.14-3.62.88-5.18,6.53-13.94-.32-25.59-5.03-38.65Z"/>
  <path class="cls-1" d="m605.32,651.76v38.23h-26.98c1.47-5.9,8.18-11.11.89-17.88-1.59-1.44.46-7.47.49-11.4.12-10.46.06-20.91.06-32.49,4.33-.77,11.09-.3,14.32-8.1.49-1.17,4.48-1.36,6.61-.8,6.61,1.82,12.97,5,19.7,6.04,4.29.65,8.97-1.57,13.48-3.6-15.27-7.52-30.93-11.16-47.37-6.64-10.87,2.95-14.99-.29-15.02-12.7-.03-9.53,3.23-13.16,12.05-12.9,6.59.16,13.41-.56,19.7,1.19,15.95,4.4,32.07,9.01,44.9,21.32,10.39,9.99,6.85,25.85-6.5,30.25-3.64,1.21-7.44,1.91-12.2,3.1,7.62,15.52,14.82,30.31,23.27,47.55-9.29,0-16.56.56-23.68-.17-6.32-.64-5.65-6.84-6.06-11.91-1-12.65-9.35-20.31-14.77-29.97-.99.28-1.93.58-2.9.88Z"/>
  <path class="cls-1" d="m560.11,200.65c3.16,8.2,2.97,8.5-7.11,14.38-2.13,1.23-3.85,3.41-5.85,4.95-9.25,7.06-19.21,7.12-28.87,2.07-8.78-4.56-14.79-11.74-14.78-23.77.02-10.51-2.22-21.15-1.4-31.55,2.6-33.9,31.31-53.1,57.59-42.26,13.37,5.5,19.3,22.78,14.32,42.72-2.65,10.66-8.34,20.42-13.9,33.47Zm-5.69-19.35c-.34-.68-.67-1.35-1-1.99-3.46.83-6.94,1.65-9.78,2.35,3.03-6.94,7.06-13.08,8.07-19.75.67-4.24-2.18-10.84-5.41-13.48-2.08-1.72-9.58.32-11.36,3.17-4.36,6.87-7.9,14.93-9.71,23.06-1.36,6.16.45,13.18.94,21.71,3.67-2.61,5.99-3.31,6.57-4.84,2.81-7.26,7.27-8.27,13.75-6.59,2.25.57,5.26-2.32,7.94-3.64Z"/>
  <path class="cls-1" d="m476.2,197.26c3.84,11.34,3.19,10.42-6.51,18.4-8.74,7.13-17.28,11.47-28.12,8.82-12.62-3.09-20.24-12.86-21.09-27.13-.51-8.78-1.27-17.54-1.27-26.3,0-31.52,23.32-53.59,50.96-48.95,12.16,2.02,21.29,13.02,22.1,26.72.97,16.58-1.74,32.01-13.03,44.31-1.15,1.25-2.09,2.79-3.04,4.14Zm-15.83-14.42c3.56-8.34,7.47-14.48,8.62-21.23.67-3.98-1.93-10.57-4.99-12.84-2.39-1.77-8.52,0-11.64,2.33-10.71,7.95-14.07,30.62-6.91,43.65,1.34-.85,3.33-1.36,3.88-2.66,3.22-7.45,8.07-8.82,15.14-7.23,2.29.55,5.48-3.81,8.24-5.92-.39-.6-.77-1.18-1.17-1.78-3.52,1.8-7.07,3.59-11.17,5.68Z"/>
  <path class="cls-1" d="m639.28,187.73c-.99,3.13-1.73,5.23-2.4,7.25,5.44-.78,10.56-1.52,15.79-2.24-4.7,25.4-23.98,36.09-42.18,31.98-4.2-.97-8.62-4.26-11.67-7.79-15.17-17.35-17.63-45.28-8.08-66.85,5.42-12.14,10.59-24.44,23.43-26.43,9.7-1.48,19.96,1.28,29.88,2.6,3.83.5,9.18.5,8.55,7.11-.61,6.91-1.62,13.91-3.82,20.26-.45,1.27-8.1,1.15-11.16-.74-12.78-7.88-19.55-5.64-27.97,7.97-5.41,8.72-6.54,16.34-2.06,25.67,3.8,7.89,8.02,10.52,15.85,7.78,2.59-.89,4.99-2.43,7.53-3.51,2.31-.98,4.64-1.73,8.32-3.07Z"/>
  <path class="cls-1" d="m520.3,589.26c13.81-2.14,20.81,2.8,25.24,19.25,5.35,20.18,9.45,40.76,14.6,61.01,1.59,6.28,4.9,12.03,7.34,18.09.4,1.01.19,2.29.33,3.91-6.74,0-13.21.32-19.64-.09-4.85-.3-8.2-2.85-7.54-9.23.44-4.02.92-8.13.56-12.1-.14-1.49-2.59-3.84-4-3.86-4.49-.07-9.03,1.31-13.54,1.18-6.8-.21-8.05,5.57-9.59,10.45-2.91,9.18-7.2,12.73-16.76,10.94-7.82-1.46-5.71-5.14-4.19-9.7,6.59-19.83,13.5-39.47,19.76-59.39,3.06-9.65,4.86-19.71,7.44-30.45Zm9.18,42.06c-1.24,8.79-2.27,15.76-3.43,23.84,5.24-.52,8.03-.37,10.57-1.23,1.06-.37,2.38-3.47,1.98-4.45-2.37-5.41-5.26-10.61-9.11-18.16Zm-12.83,3.8c-.96-.26-1.9-.54-2.83-.8-.06,8.21-8.73,14.17-3.06,23.93,1.94-7.71,3.89-15.43,5.89-23.13Z"/>
  <path class="cls-1" d="m142.51,341.85c-.77-38.23,7.76-70.77,35.67-94.01,17.33-14.43,41.57-16.09,59.93-4.61-6.22.94-11.5,1.45-16.63,2.56-33.34,7.21-53.86,30.98-59.08,68.31-2.1,14.72-2.94,15.89-19.88,27.74Z"/>
  <path class="cls-1" d="m233.62,467.9c-.39.74-1.89,3.33-3.36,5.96-2.04-2.28-5.03-4.12-6.06-6.86-8.9-23.05-17.41-46.25-26.04-69.42-.73-1.96-2.28-4.23-1.88-5.89,1.55-6.11,3.7-12.05,5.65-18.05,4.32,1.85,9.45,2.66,12.83,5.73,8.4,7.56,14.4,16.81,14.92,29.85.7,18.68,2.47,37.35,3.94,58.69Z"/>
</svg>