<svg width="27" height="10" viewBox="0 0 27 10" fill="none" xmlns="http://www.w3.org/2000/svg">
<path d="M18.6834 9.5C17.1002 9.5 15.6226 9.24091 15.2004 9.06818C14.4616 8.80909 13.7227 8.37727 13.195 7.85909C12.6673 8.37727 12.034 8.80909 11.1896 9.06818C10.7675 9.24091 9.39535 9.5 7.70662 9.5C4.85688 9.5 0.00177002 8.63636 0.00177002 2.50455V1.38182L0.951683 2.15909C1.58496 2.67727 2.53487 3.02273 3.48478 3.02273C4.22361 3.02273 4.96243 2.85 5.5957 2.50455C6.01789 2.24545 6.33452 1.98636 6.75671 1.64091C7.81217 0.777273 8.86762 0 10.3453 0C10.5564 0 10.7674 0 10.9785 0.0863636C11.8229 0.172727 12.5617 0.604545 13.195 1.12273C13.8283 0.518182 14.5671 0.172727 15.4115 0.0863636C15.6226 0 15.8337 0 16.0447 0C17.5224 0 18.5778 0.863636 19.5278 1.55455C19.9499 1.81364 20.2666 2.15909 20.6888 2.41818C21.1109 2.67727 21.7442 2.85 22.272 2.93636H23.0108C23.9607 2.93636 24.8051 2.59091 25.4383 2.07273L26.3882 1.38182V2.50455C26.3882 6.13182 24.594 7.77273 23.1163 8.55C22.9052 8.63636 22.5886 8.80909 22.3775 8.89545C21.4276 9.32727 20.161 9.5 18.6834 9.5ZM13.195 7.16818L13.4061 7.34091C13.9338 7.85909 14.5671 8.29091 15.4115 8.63636C15.8337 8.80909 17.2057 9.06818 18.6834 9.06818C20.161 9.06818 21.322 8.89545 22.272 8.46364C22.483 8.37727 22.7997 8.20455 23.0108 8.11818C25.0161 7.16818 26.0716 5.18182 26.0716 2.50455V2.33182L25.8605 2.50455C25.1217 3.02273 24.1718 3.36818 23.2219 3.45455H22.483C21.8498 3.36818 21.2165 3.19545 20.5832 2.85C20.161 2.59091 19.7388 2.24545 19.3167 1.98636C18.4723 1.29545 17.5224 0.518182 16.1503 0.518182C15.9392 0.518182 15.7281 0.518182 15.6226 0.604545C14.7782 0.690909 14.0394 1.12273 13.5116 1.72727H13.195L12.9839 1.55455C12.3506 0.95 11.6118 0.604545 10.873 0.431818C10.6619 0.431818 10.4508 0.345455 10.3453 0.345455C9.07872 0.345455 8.1288 1.12273 7.17889 1.81364C6.75671 2.15909 6.33452 2.50455 5.91234 2.76364C5.27906 3.19545 4.4347 3.36818 3.59033 3.36818C2.53487 3.36818 1.47941 3.02273 0.740591 2.41818L0.423954 2.33182V2.59091C0.423954 8.29091 4.96243 9.15455 7.70662 9.15455C9.28981 9.15455 10.6619 8.89545 10.9785 8.72273C11.8229 8.37727 12.4562 7.94545 12.9839 7.42727L13.195 7.16818ZM18.6834 8.89545C16.9947 8.89545 15.7281 8.63636 15.517 8.46364C14.5671 8.11818 13.8283 7.6 13.4061 6.90909L13.3006 6.82273L13.0895 6.90909C12.5617 7.6 11.8229 8.11818 10.9785 8.46364C10.6619 8.55 9.39535 8.89545 7.81217 8.89545C4.75133 8.89545 1.16277 7.94545 0.846137 3.19545V2.76364L1.05723 3.02273C1.79605 3.45455 2.64042 3.62727 3.48478 3.62727C4.4347 3.62727 5.27906 3.36818 6.01788 2.93636C6.54561 2.67727 6.9678 2.33182 7.38998 1.98636C8.33989 1.29545 9.18426 0.604545 10.3453 0.604545C10.5564 0.604545 10.6619 0.604545 10.873 0.604545C11.7174 0.777273 12.5617 1.20909 13.0895 1.9L13.195 1.98636L13.3006 1.9C13.9338 1.20909 14.6726 0.690909 15.517 0.604545C15.7281 0.604545 15.8337 0.604545 16.0447 0.604545C17.2057 0.604545 18.0501 1.29545 19 1.98636C19.4222 2.33182 19.8444 2.67727 20.2666 2.93636C20.8999 3.28182 21.5331 3.54091 22.272 3.54091C22.3775 3.54091 22.5886 3.54091 22.7997 3.54091C22.9052 3.54091 22.9052 3.54091 23.0108 3.54091C23.8551 3.54091 24.594 3.28182 25.3328 2.93636L25.755 2.76364V3.19545C25.6494 5.26818 24.8051 6.82273 23.2219 7.77273C23.0108 7.94545 22.6941 8.03182 22.483 8.20455C21.4276 8.63636 20.161 8.89545 18.6834 8.89545ZM13.195 6.13182L13.7227 6.73636C14.1449 7.34091 14.7782 7.77273 15.6226 8.11818C15.8337 8.20455 17.1002 8.46364 18.6834 8.46364C20.0555 8.46364 21.2165 8.20455 22.272 7.85909C22.483 7.77273 22.6941 7.6 22.9052 7.51364C24.1718 6.73636 25.0161 5.35455 25.1217 3.54091C24.4884 3.8 23.7496 3.97273 23.0108 3.97273C22.9052 3.97273 22.9052 3.97273 22.7997 3.97273C22.5886 3.97273 22.3775 3.97273 22.272 3.97273C21.4276 3.88636 20.6888 3.62727 20.0555 3.28182C19.5278 3.02273 19.1056 2.67727 18.7889 2.33182C17.9446 1.64091 17.2057 1.03636 16.1503 1.03636C16.0447 1.03636 15.8337 1.03636 15.7281 1.03636C14.9893 1.12273 14.2505 1.55455 13.7227 2.15909L13.3006 2.76364L12.6673 2.24545C12.1395 1.64091 11.4007 1.20909 10.6619 1.12273C10.5564 1.12273 10.3453 1.12273 10.2397 1.12273C9.18426 1.12273 8.44544 1.72727 7.60107 2.41818C7.17889 2.67727 6.75671 3.02273 6.33452 3.28182C5.5957 3.71364 4.54024 3.97273 3.59033 3.97273C2.74596 3.97273 2.00714 3.8 1.26832 3.45455C1.6905 7.51364 5.06797 8.37727 7.81217 8.37727C9.39535 8.37727 10.5564 8.11818 10.873 8.03182C11.6118 7.77273 12.2451 7.34091 12.6673 6.73636L13.195 6.13182Z" fill="white"/>
<path d="M22.2719 3.19546C21.6387 3.10909 21.1109 2.93637 20.5832 2.59091C20.161 2.33182 19.7388 1.98637 19.4222 1.72727C18.4723 0.950002 17.5224 0.172729 16.1503 0.172729C15.9392 0.172729 15.7281 0.172729 15.517 0.259093C14.6726 0.345457 13.8283 0.777275 13.195 1.38182C12.5617 0.777275 11.8229 0.345457 10.873 0.259093C10.6619 0.259093 10.4508 0.172729 10.2397 0.172729C8.86762 0.172729 7.91771 0.950002 7.07334 1.72727C6.65116 1.98637 6.22897 2.33182 5.80679 2.59091C5.17352 3.02273 4.43469 3.19546 3.59033 3.19546C2.53487 3.19546 1.58496 2.85 0.846135 2.33182L0.21286 1.81364V2.50455C0.21286 8.37728 4.85688 9.24091 7.70662 9.24091C9.28981 9.24091 10.6619 8.98182 11.0841 8.80909C11.9285 8.46364 12.5617 8.03182 13.195 7.51364C13.7227 8.11818 14.4616 8.55 15.3059 8.80909C15.7281 8.98182 17.1002 9.24091 18.6834 9.24091C19.7388 9.24091 21.1109 9.15455 22.3775 8.63637C22.5886 8.55 22.9052 8.37728 23.1163 8.29091C24.9106 7.42728 26.2827 5.7 26.2827 2.41818V1.81364L25.6494 2.24546C25.0161 2.76364 24.0662 3.10909 23.1163 3.10909L22.2719 3.19546ZM22.2719 8.03182C21.1109 8.55 19.8444 8.72273 18.5778 8.72273C16.9947 8.72273 15.7281 8.46364 15.4115 8.29091C14.5671 7.94546 13.8283 7.42728 13.3005 6.82273L12.9839 6.47728L12.6673 6.82273C12.1395 7.42728 11.5063 7.94546 10.5564 8.29091C10.5564 8.37728 9.28981 8.63637 7.70662 8.63637C4.75133 8.63637 1.26832 7.68637 0.951681 3.10909C1.6905 3.54091 2.64042 3.71364 3.59033 3.71364C4.54024 3.71364 5.49015 3.45455 6.22897 3.02273C6.65116 2.76364 7.07334 2.41818 7.49552 2.07273C8.33989 1.46818 9.18426 0.863639 10.3453 0.863639C10.4508 0.863639 10.6619 0.863639 10.873 0.863639C11.7174 0.950002 12.4562 1.38182 12.9839 2.07273L13.3005 2.41818L13.6172 2.07273C14.1449 1.38182 14.8837 0.950002 15.7281 0.863639C15.9392 0.863639 16.0447 0.863639 16.2558 0.863639C17.4168 0.863639 18.1557 1.55455 19.1056 2.24546C19.5278 2.59091 19.9499 2.93637 20.3721 3.19546C21.0054 3.54091 21.7442 3.8 22.483 3.88637C22.6941 3.88637 22.7997 3.88637 23.0108 3.88637C23.1163 3.88637 23.1163 3.88637 23.2219 3.88637C24.0662 3.88637 24.9106 3.62727 25.6494 3.28182C25.5439 5.52727 24.594 6.90909 23.2219 7.77273C22.7997 7.77273 22.5886 7.85909 22.2719 8.03182Z" fill="white"/>
</svg>
