<svg width="32" height="32" viewBox="0 0 32 32" fill="none" xmlns="http://www.w3.org/2000/svg">
<path d="M29.3111 12.8096C28.7368 12.1118 27.7384 11.7351 27.0314 11.6839C25.0119 11.5632 24.5654 13.3461 24.5727 13.48C24.7273 13.2562 24.9978 12.5217 26.3041 12.4552C28.4806 12.4981 28.9118 14.3539 28.8421 15.0789C28.7512 16.0254 28.2129 16.8077 27.0564 16.9957C24.9493 17.2064 23.8764 16.2064 23.1802 15.0784C22.484 13.9505 21.6786 12.4028 20.0011 12.1096C18.193 11.7936 16.9003 12.26 16.0001 13.1422C15.0999 12.26 13.8071 11.7935 11.9991 12.1096C10.3215 12.4028 9.51607 13.9506 8.81995 15.0784C8.12382 16.2063 7.05082 17.2063 4.94376 16.9957C3.7872 16.8077 3.24895 16.0254 3.15801 15.0789C3.08838 14.3539 3.51957 12.4981 5.69601 12.4552C7.00238 12.5216 7.27282 13.2561 7.42745 13.48C7.4347 13.3461 6.98832 11.5632 4.9687 11.6839C4.2617 11.7351 3.26345 12.1118 2.68907 12.8096C1.79995 13.8899 1.4617 15.1532 1.6982 16.5446C2.73745 20.8287 8.2402 20.3891 9.82126 20.2256C10.8544 20.1188 11.8668 19.9041 12.8479 19.5646C14.6031 18.9485 15.9148 17.6876 16.0001 17.5984C16.0853 17.6876 17.3971 18.9485 19.1522 19.5646C20.1333 19.9041 21.1457 20.1188 22.1789 20.2256C23.7599 20.3891 29.2627 20.8287 30.3019 16.5446C30.5384 15.1532 30.2001 13.8899 29.3111 12.8096Z" fill="#F2E1AB"/>
</svg>
